<svg xmlns="http://www.w3.org/2000/svg" viewBox="0 0 362.59 94.22"><title>akeeba_4c</title><g id="Ebene_2" data-name="Ebene 2"><g id="akeeba_logo"><g id="_4c" data-name="4c"><path d="M147.51,72.68a26.54,26.54,0,0,0,19.24-7.59l2.53,4.73a30.62,30.62,0,0,1-21.66,8.25c-18.47,0-29.58-12-29.58-27.93C118,34.75,128.6,22,145.64,22s28,13.19,26.28,31.23H124C125.3,65.09,133.87,72.68,147.51,72.68Zm18.91-24.52C166,35.74,158,27.38,145.75,27.38c-12.54,0-21,8.36-21.88,20.78Z" fill="#525050"/><path d="M208.1,72.68a26.54,26.54,0,0,0,19.24-7.59l2.53,4.73a30.62,30.62,0,0,1-21.66,8.25c-18.47,0-29.58-12-29.58-27.93,0-15.39,10.56-28.15,27.6-28.15s28,13.19,26.28,31.23H184.57C185.89,65.09,194.46,72.68,208.1,72.68ZM227,48.16c-.44-12.42-8.47-20.78-20.67-20.78-12.54,0-21,8.36-21.88,20.78Z" fill="#525050"/><path d="M299.36,50c0,15.39-11.44,28-28.26,28-9.35,0-17.15-4-21.88-10.56V77H243.4V0h5.83V32.55C254,26,261.76,22,271.1,22,287.93,22,299.36,34.64,299.36,50Zm-5.94,0c0-13.08-9.24-22.65-23.09-22.65a23.76,23.76,0,0,0-21.11,11.77V60.92c4.29,7.26,11.77,11.66,21.11,11.66C284.19,72.57,293.42,63.11,293.42,50Z" fill="#525050"/><path d="M362.59,23.09V77h-5.83V67.51c-4.73,6.6-12.53,10.56-21.88,10.56-16.82,0-28.26-12.64-28.26-28s11.44-28,28.26-28c9.35,0,17.15,4,21.88,10.56V23.09Zm-5.83,16.05a23.76,23.76,0,0,0-21.11-11.77c-13.85,0-23.09,9.57-23.09,22.65s9.24,22.54,23.09,22.54c9.35,0,16.82-4.4,21.11-11.66Z" fill="#525050"/><polygon points="94.84 49.47 128.13 15.42 104 15.42 70.87 49.47 104.98 84.86 129.02 84.86 94.84 49.47" fill="#39b6b8"/><path d="M76.81,37.75V15.42H56v8.64c-5.24-6.52-12.9-10.49-22.82-10.49C13.89,13.58,0,28.6,0,50.14c0,20,12.18,34.62,29.57,36.38a35.52,35.52,0,0,0,3.59.18h.42l.29,7.53L56.39,80l6.33-4L56.39,72.7,32.55,60.14l.29,7.39a16.64,16.64,0,0,1-4.08-2c-4.71-3.16-7.36-8.62-7.36-15.42,0-11.05,6.8-18.42,18-18.42a19.74,19.74,0,0,1,17,8.93V68.18l8.2,4.32,6.13,3.23-5.86,3.69-8.47,5.33v.1H76.81V61.27l-8.76-9.09-2.63-2.73,2.64-2.71Z" fill="#525050"/></g></g></g></svg>